<svg width="30" height="30" viewBox="0 0 30 30" fill="none" xmlns="http://www.w3.org/2000/svg">
<g clip-path="url(#clip0_1_43)">
<path d="M15 30C23.2843 30 30 23.2843 30 15C30 6.71573 23.2843 0 15 0C6.71573 0 0 6.71573 0 15C0 23.2843 6.71573 30 15 30Z" fill="#222222"/>
<path d="M15 7.29998C9.77 7.29998 5.53 10.67 5.53 14.83C5.53 17.41 7.16 19.68 9.64 21.04L8.96 24.71C8.93 24.89 9.13 25.03 9.28 24.92L13.35 22.24C13.35 22.24 14.44 22.35 15 22.35C20.23 22.35 24.47 18.98 24.47 14.82C24.47 10.66 20.23 7.28998 15 7.28998V7.29998Z" fill="white"/>
<path d="M11.32 12.73H8.59C8.33 12.73 8.13 12.94 8.13 13.2C8.13 13.46 8.34 13.67 8.59 13.67H9.48V16.96C9.48 17.08 9.53 17.2 9.61 17.28C9.69 17.37 9.81 17.41 9.93 17.41H10.03C10.15 17.41 10.27 17.36 10.35 17.28C10.43 17.19 10.48 17.08 10.48 16.96V13.67H11.32C11.58 13.67 11.78 13.46 11.78 13.2C11.78 12.94 11.57 12.73 11.32 12.73Z" fill="#222222"/>
<path d="M17.71 16.53H16.44V13.17C16.44 12.89 16.21 12.66 15.94 12.66C15.67 12.66 15.44 12.89 15.44 13.17V16.96C15.44 17.19 15.63 17.38 15.86 17.38H17.71C17.94 17.38 18.13 17.19 18.13 16.96C18.13 16.73 17.94 16.54 17.71 16.54V16.53Z" fill="#222222"/>
<path d="M21.78 16.69L20.37 14.82L21.65 13.53C21.82 13.36 21.82 13.07 21.65 12.9C21.48 12.73 21.2 12.73 21.02 12.9L19.44 14.49V13.17C19.44 12.89 19.21 12.66 18.94 12.66C18.67 12.66 18.44 12.89 18.44 13.17V16.91C18.44 17.19 18.67 17.42 18.94 17.42C19.21 17.42 19.44 17.19 19.44 16.91V15.76L19.73 15.47L21.07 17.24C21.22 17.44 21.5 17.48 21.7 17.33C21.9 17.18 21.94 16.89 21.79 16.69H21.78Z" fill="#222222"/>
<path d="M15.13 16.81L13.77 13.06C13.68 12.83 13.43 12.66 13.13 12.66C13.06 12.66 12.98 12.66 12.91 12.69C12.84 12.71 12.78 12.74 12.72 12.78C12.66 12.82 12.62 12.86 12.57 12.91C12.54 12.94 12.52 12.98 12.5 13.02C12.48 13.06 12.42 13.25 12.4 13.31L12.38 13.37C12.38 13.37 12.36 13.42 12.35 13.44C12.34 13.47 12.33 13.5 12.32 13.53C12.31 13.56 12.3 13.59 12.28 13.63L12.24 13.74C12.24 13.74 12.21 13.82 12.2 13.85C12.18 13.89 12.17 13.93 12.16 13.97C12.14 14.01 12.13 14.06 12.11 14.1C12.09 14.14 12.08 14.19 12.06 14.23C12.04 14.28 12.03 14.32 12.01 14.37L11.96 14.51C11.96 14.51 11.92 14.61 11.91 14.66L11.85 14.81C11.85 14.81 11.81 14.91 11.79 14.96C11.77 15.01 11.75 15.06 11.73 15.11C11.71 15.16 11.69 15.21 11.67 15.26C11.65 15.31 11.63 15.36 11.61 15.41C11.59 15.46 11.57 15.51 11.56 15.55C11.54 15.6 11.53 15.64 11.51 15.69C11.49 15.74 11.48 15.78 11.46 15.83L11.41 15.96L11.36 16.09C11.36 16.09 11.33 16.17 11.32 16.21C11.31 16.25 11.29 16.28 11.28 16.32C11.27 16.35 11.25 16.39 11.24 16.42L11.21 16.51L11.18 16.59L11.15 16.66L11.13 16.72C11.13 16.72 11.12 16.75 11.11 16.76V16.79L11.09 16.81C11.01 17.05 11.13 17.31 11.37 17.39C11.61 17.47 11.86 17.35 11.95 17.11L12.18 16.45H14.04L14.27 17.11C14.35 17.35 14.61 17.47 14.85 17.39C15.09 17.31 15.21 17.05 15.13 16.81ZM12.48 15.6L13.1 13.8H13.12L13.74 15.6H12.47H12.48Z" fill="#222222"/>
</g>
<defs>
<clipPath id="clip0_1_43">
<rect width="30" height="30" fill="white"/>
</clipPath>
</defs>
</svg>
